<?xml version="1.0" encoding="iso-8859-1"?>
<!-- Generator: Adobe Illustrator 17.1.0, SVG Export Plug-In . SVG Version: 6.00 Build 0)  -->
<!DOCTYPE svg PUBLIC "-//W3C//DTD SVG 1.1//EN" "http://www.w3.org/Graphics/SVG/1.1/DTD/svg11.dtd">
<svg xmlns="http://www.w3.org/2000/svg" xmlns:xlink="http://www.w3.org/1999/xlink" version="1.1" id="Capa_1" x="0px" y="0px" viewBox="0 0 363.817 363.817" style="enable-background:new 0 0 363.817 363.817;" xml:space="preserve" width="512px" height="512px">
<path id="XMLID_847_" d="M101.348,79.501V11.3c0-6.075,4.925-11,11-11s11,4.925,11,11v68.202c0,20.403,13.28,37.641,28.999,37.641  s28.999-17.237,28.999-37.641V22l-18.001,0v57.157c0,6.075-4.925,11-11,11s-11-4.925-11-11V11c0-6.075,4.925-11,11-11l40.001,0  c2.917,0,5.715,1.159,7.778,3.222c2.063,2.063,3.222,4.861,3.222,7.778v68.501c0,32.886-22.878,59.641-50.999,59.641  S101.348,112.388,101.348,79.501z M111.351,209.08h81.99c6.075,0,11-4.925,11-11s-4.925-11-11-11h-81.99c-6.075,0-11,4.925-11,11  S105.276,209.08,111.351,209.08z M131.635,230.278c-6.075,0-11,4.925-11,11s4.925,11,11,11h41.422c6.075,0,11-4.925,11-11  s-4.925-11-11-11H131.635z M269.155,293.691V46.802c0-6.075-4.925-11-11-11h-29.5c-6.075,0-11,4.925-11,11s4.925,11,11,11h18.5  v224.889H57.536V57.802h18.5c6.075,0,11-4.925,11-11s-4.925-11-11-11h-29.5c-6.075,0-11,4.925-11,11v246.889c0,6.075,4.925,11,11,11  h211.619C264.23,304.691,269.155,299.766,269.155,293.691z M317.282,77.136H296.52c-6.075,0-11,4.925-11,11s4.925,11,11,11h9.762  v242.681H98.869v-13.55c0-6.075-4.925-11-11-11s-11,4.925-11,11v24.55c0,6.075,4.925,11,11,11h229.413c6.075,0,11-4.925,11-11  V88.136C328.282,82.061,323.357,77.136,317.282,77.136z" fill="#f08800"/>
<g>
</g>
<g>
</g>
<g>
</g>
<g>
</g>
<g>
</g>
<g>
</g>
<g>
</g>
<g>
</g>
<g>
</g>
<g>
</g>
<g>
</g>
<g>
</g>
<g>
</g>
<g>
</g>
<g>
</g>
</svg>
